# xmcd
#
# Track frame offsets: 
#        150
#        16402
#        36347
#        54920
#        73455
#        90932
#        110305
#        127530
#        148602
#        167785
#        183940
#        202500
#        219470
#        245237
#
# Disc length: 3590 seconds
#
# Revision: 0
# Processed by: cddbd v1.5.1PL2 Copyright (c) Steve Scherf et al.
# Submitted via: ExactAudioCopy v0.95b3
#
DISCID=ba0e040e
DTITLE=100 Debija - Kaa Tev Iet
DYEAR=1996
DGENRE=Dance
TTITLE0=Kaa Tev Iet
TTITLE1=12 Peecpusdienaa
TTITLE2=Kas Aizliegt Var To
TTITLE3=Tik Nesen
TTITLE4=Wo-Ho (Es Saucu)
TTITLE5=Ja Meitene Gaida
TTITLE6=Sen Jau Viss (radio edit)
TTITLE7=Atkal Viens
TTITLE8=Meitenei Stokholmaa (metro mix)
TTITLE9=How' Ve You Been
TTITLE10=Why 'No' (club mix)
TTITLE11=Day By Day (radio edit)
TTITLE12=Day By Day (Baby boom mix)
TTITLE13=Day By Day (Another day mix)
EXTD=
EXTT0=
EXTT1=
EXTT2=
EXTT3=
EXTT4=
EXTT5=
EXTT6=
EXTT7=
EXTT8=
EXTT9=
EXTT10=
EXTT11=
EXTT12=
EXTT13=
PLAYORDER=
